<svg width="1440" height="267" viewBox="0 0 1440 267" fill="none" xmlns="http://www.w3.org/2000/svg">
<path fill-rule="evenodd" clip-rule="evenodd" d="M0 262.577H0.0426814C2.44383 281.532 105.85 296.551 232.63 296.551C289.294 296.551 378.32 294.202 448.911 290.191C466.304 289.677 486.9 288.329 509.363 286.86C554.824 283.885 607.929 280.41 657.593 282.336C831.835 307.524 932.696 308.456 943.014 286.273C984.63 272.868 1041.81 283.893 1099.96 295.103C1126.05 300.134 1152.33 305.201 1177.49 308.116C1294.18 316.622 1398.26 295.079 1464.63 268.538H1466.97V267.59C1554.2 232.075 1573.98 188.215 1466.98 195.248V54.4415L1466.97 10.9468H1453.96C1443.83 -2.14213 1408.78 -6.07017 1320.85 13.7204C1246.67 39.9635 1117.78 59.6054 1044.94 44.8614C1042.54 44.3762 1040.11 43.9402 1037.65 43.5512C1033.26 42.6464 1028.86 41.7316 1024.44 40.814L1024.43 40.8114C958.157 27.0365 888.911 12.6434 786.462 22.3737C763.274 24.5761 739.283 30.5811 712.559 37.2705C664.529 49.2927 607.668 63.5255 530.76 61.8677C519.221 61.1895 508.923 60.8033 499.801 60.6708C449.727 56.4407 417.79 48.6001 386.06 40.8102C338.727 29.1897 291.855 17.6823 185.919 18.442C126.03 18.8715 6.30439 35.7505 0.239516 54.4457L0 54.4415V55.9162V261.903V262.577Z" fill="url(#paint0_linear)"/>
<defs>
<linearGradient id="paint0_linear" x1="770" y1="0" x2="770" y2="310" gradientUnits="userSpaceOnUse">
<stop offset="0.286458" stop-color="#024A8C" stop-opacity="0.5"/>
<stop offset="0.796875" stop-color="#0D75D5" stop-opacity="0.912068"/>
<stop offset="1" stop-color="#076AC6"/>
</linearGradient>
</defs>
</svg>
