<svg width="1440" height="769" viewBox="0 0 1440 769" fill="none" xmlns="http://www.w3.org/2000/svg">
<path fill-rule="evenodd" clip-rule="evenodd" d="M0 650.547H0.0418839C2.39853 697.508 103.904 734.72 228.352 734.72C283.975 734.72 371.366 728.899 440.658 718.962C457.731 717.689 477.948 714.35 499.996 710.709C544.622 703.339 596.75 694.729 645.5 699.5C816.54 761.907 915.547 764.214 925.674 709.255C966.524 676.044 1022.65 703.358 1079.73 731.132C1105.34 743.595 1131.14 756.15 1155.84 763.372C1270.38 784.445 1372.54 731.073 1437.69 665.315H1440V662.966C1525.62 574.976 1545.04 466.311 1440 483.736V154.972V134.881V27.1211H1427.22C1417.28 -5.30725 1382.87 -15.0391 1296.56 33.993C1223.75 99.0115 1097.22 147.675 1025.72 111.146C1023.37 109.945 1020.99 108.866 1018.58 107.902C1014.26 105.658 1009.93 103.388 1005.59 101.111C940.538 66.9832 872.565 31.3235 772 55.431C749.238 60.8875 725.689 75.7652 699.456 92.3384C652.309 122.124 596.494 157.386 521 153.279C509.673 151.599 499.564 150.642 490.61 150.314C441.457 139.834 410.107 120.408 378.961 101.108C332.499 72.3181 286.488 43.8078 182.5 45.6899C123.712 46.754 6.18732 88.5731 0.235025 134.892L0 134.881V138.534V648.877V650.547Z" fill="url(#paint0_linear)"/>
<ellipse cx="1278" cy="451.5" rx="41" ry="20.5" fill="#08A1E2"/>
<path d="M1307.89 454.046C1306.42 452.871 1306.38 450.649 1307.81 449.425L1325.19 434.536C1327.12 432.884 1330.1 434.225 1330.14 436.764L1330.63 465.954C1330.67 468.492 1327.74 469.933 1325.76 468.346L1307.89 454.046Z" fill="#08A1E2"/>
<ellipse cx="1204" cy="521.5" rx="41" ry="20.5" fill="#08A1E2"/>
<path d="M1233.89 524.046C1232.42 522.871 1232.38 520.649 1233.81 519.425L1251.19 504.536C1253.12 502.884 1256.1 504.225 1256.14 506.764L1256.63 535.954C1256.67 538.492 1253.74 539.933 1251.76 538.346L1233.89 524.046Z" fill="#08A1E2"/>
<ellipse cx="1102" cy="496.5" rx="41" ry="20.5" fill="#08A1E2"/>
<path d="M1131.89 499.046C1130.42 497.871 1130.38 495.649 1131.81 494.425L1149.19 479.536C1151.12 477.884 1154.1 479.225 1154.14 481.764L1154.63 510.954C1154.67 513.492 1151.74 514.933 1149.76 513.346L1131.89 499.046Z" fill="#08A1E2"/>
<ellipse cx="1384" cy="134.5" rx="41" ry="20.5" fill="#08A1E2"/>
<path d="M1413.89 137.046C1412.42 135.871 1412.38 133.649 1413.81 132.425L1431.19 117.536C1433.12 115.884 1436.1 117.225 1436.14 119.764L1436.63 148.954C1436.67 151.492 1433.74 152.933 1431.76 151.346L1413.89 137.046Z" fill="#08A1E2"/>
<ellipse cx="1310" cy="204.5" rx="41" ry="20.5" fill="#08A1E2"/>
<path d="M1339.89 207.046C1338.42 205.871 1338.38 203.649 1339.81 202.425L1357.19 187.536C1359.12 185.884 1362.1 187.225 1362.14 189.764L1362.63 218.954C1362.67 221.492 1359.74 222.933 1357.76 221.346L1339.89 207.046Z" fill="#08A1E2"/>
<ellipse cx="1208" cy="179.5" rx="41" ry="20.5" fill="#08A1E2"/>
<path d="M1237.89 182.046C1236.42 180.871 1236.38 178.649 1237.81 177.425L1255.19 162.536C1257.12 160.884 1260.1 162.225 1260.14 164.764L1260.63 193.954C1260.67 196.492 1257.74 197.933 1255.76 196.346L1237.89 182.046Z" fill="#08A1E2"/>
<ellipse cx="674" cy="336.5" rx="41" ry="20.5" fill="#08A1E2"/>
<path d="M703.887 339.046C702.418 337.871 702.381 335.649 703.809 334.425L721.191 319.536C723.119 317.884 726.1 319.225 726.142 321.764L726.631 350.954C726.673 353.492 723.739 354.933 721.756 353.346L703.887 339.046Z" fill="#08A1E2"/>
<ellipse cx="600" cy="406.5" rx="41" ry="20.5" fill="#08A1E2"/>
<path d="M629.887 409.046C628.418 407.871 628.381 405.649 629.809 404.425L647.191 389.536C649.119 387.884 652.1 389.225 652.142 391.764L652.631 420.954C652.673 423.492 649.739 424.933 647.756 423.346L629.887 409.046Z" fill="#08A1E2"/>
<ellipse cx="498" cy="381.5" rx="41" ry="20.5" fill="#08A1E2"/>
<path d="M527.887 384.046C526.418 382.871 526.381 380.649 527.809 379.425L545.191 364.536C547.119 362.884 550.1 364.225 550.142 366.764L550.631 395.954C550.673 398.492 547.739 399.933 545.756 398.346L527.887 384.046Z" fill="#08A1E2"/>
<defs>
<linearGradient id="paint0_linear" x1="755.841" y1="0" x2="755.841" y2="768.04" gradientUnits="userSpaceOnUse">
<stop offset="0.0104167" stop-color="#045EB1"/>
<stop offset="0.645833" stop-color="#1C8DF5" stop-opacity="0.717363"/>
<stop offset="1" stop-color="#0054A2" stop-opacity="0.5"/>
</linearGradient>
</defs>
</svg>
