<svg width="666" height="473" viewBox="0 0 666 473" fill="none" xmlns="http://www.w3.org/2000/svg">
<path fill-rule="evenodd" clip-rule="evenodd" d="M-0.000244141 251.039C-0.000244141 345.86 17.1489 470.597 196.76 470.597C207.972 472.277 220.919 472.616 235.121 471.804C279.262 474.154 330.997 472.972 381.364 462.628C491.344 440.042 666 411.11 666 411.11V240.183L496.201 343.142C488.811 346.625 480.984 349.843 472.767 352.54C356.954 339.166 346.296 242.925 336.489 154.378C327.59 74.0208 319.392 0 233.941 0C54.3301 0 -0.000244141 156.219 -0.000244141 251.039Z" fill="url(#paint0_linear)"/>
<path d="M180.539 387.926C192.058 401.607 179.15 419.538 165.841 419.538C152.531 419.538 151 403.315 151 383.938C151 364.561 151 341.792 175.098 348.853C187.677 360.107 173.047 372.994 180.539 387.926Z" fill="#08A1E2"/>
<path d="M180.539 387.926C192.058 401.607 179.15 419.538 165.841 419.538C152.531 419.538 151 403.315 151 383.938C151 364.561 151 341.792 175.098 348.853C187.677 360.107 173.047 372.994 180.539 387.926Z" fill="#08A1E2"/>
<path d="M166.362 410.329C181.495 413.617 181.386 432.69 171.908 439.707C162.431 446.724 153.123 436.432 143.308 423.174C141.682 410.329 137.428 412.023 133.467 392.22C131.487 366.476 153.464 404.064 166.362 410.329Z" fill="#08A1E2"/>
<path d="M166.362 410.329C181.495 413.617 181.386 432.69 171.908 439.707C162.431 446.724 153.123 436.432 143.308 423.174C141.682 410.329 137.428 412.023 133.467 392.22C131.487 366.476 153.464 404.064 166.362 410.329Z" fill="#08A1E2"/>
<path d="M153.169 424.135C167.652 418.652 184.057 429.457 179.928 440.503C175.8 451.548 165.246 444.652 149.795 438.877C141.437 428.988 116.891 436.741 114.883 424.135C114.884 385.702 138.939 425.902 153.169 424.135Z" fill="#08A1E2"/>
<path d="M153.169 424.135C167.652 418.652 184.057 429.457 179.928 440.503C175.8 451.548 165.246 444.652 149.795 438.877C141.437 428.988 116.891 436.741 114.883 424.135C114.884 385.702 138.939 425.902 153.169 424.135Z" fill="#08A1E2"/>
<path d="M188.607 443.924C200.993 439.6 213.406 430.356 195.988 428.495C183.728 432.56 188.429 424.63 180.88 429.738C170.876 438.262 156.458 426.697 161.991 441.08C183.106 485.554 181.721 450.376 188.607 443.924Z" fill="#08A1E2"/>
<path d="M188.607 443.924C200.993 439.6 213.406 430.356 195.988 428.495C183.728 432.56 188.429 424.63 180.88 429.738C170.876 438.262 156.458 426.697 161.991 441.08C183.106 485.554 181.721 450.376 188.607 443.924Z" fill="#08A1E2"/>
<path d="M195.809 409.75C188.287 427.547 186.591 428.229 173.868 422.851C161.145 417.473 163.641 376.101 176.844 385.636C194.39 398.308 189.864 345.446 210.16 361.669C217.816 377.088 203.332 391.953 195.809 409.75Z" fill="#08A1E2"/>
<path d="M195.809 409.75C188.287 427.547 186.591 428.229 173.868 422.851C161.145 417.473 163.641 376.101 176.844 385.636C194.39 398.308 189.864 345.446 210.16 361.669C217.816 377.088 203.332 391.953 195.809 409.75Z" fill="#08A1E2"/>
<path d="M184 445.122C184 456.509 174.06 468.538 161.799 468.538C145.931 468.538 156.382 449.982 148.906 438.642C141.353 418.023 149.538 424.503 161.799 424.503C174.06 424.503 184 433.735 184 445.122Z" fill="#08A1E2"/>
<path d="M152 442.538H184.033L186 470.538L152 468.509V442.538Z" fill="#08A1E2"/>
<ellipse cx="241.5" cy="251.038" rx="23.5" ry="11.5" fill="#08A1E2"/>
<path d="M261.895 254.833C259.447 252.874 259.385 249.172 261.766 247.132L263.667 245.503C266.881 242.75 271.849 244.985 271.919 249.217L271.973 252.41C272.043 256.641 267.154 259.042 263.849 256.397L261.895 254.833Z" fill="#08A1E2"/>
<ellipse cx="279.5" cy="274.538" rx="15.5" ry="8" fill="#08A1E2"/>
<path d="M292.235 276.941C290.766 275.765 290.729 273.544 292.157 272.32L294.036 270.711C295.964 269.059 298.945 270.4 298.987 272.939L299.04 276.094C299.082 278.632 296.148 280.073 294.166 278.486L292.235 276.941Z" fill="#08A1E2"/>
<ellipse cx="312.5" cy="258.038" rx="15.5" ry="7.5" fill="#08A1E2"/>
<path d="M325.956 260.079C324.488 258.904 324.45 256.682 325.879 255.459L327.758 253.849C329.686 252.198 332.666 253.539 332.709 256.078L332.762 259.232C332.804 261.771 329.87 263.211 327.888 261.625L325.956 260.079Z" fill="#08A1E2"/>
<defs>
<linearGradient id="paint0_linear" x1="371.266" y1="0" x2="371.266" y2="472.824" gradientUnits="userSpaceOnUse">
<stop stop-color="#00499F" stop-opacity="0.5"/>
<stop offset="0.630208" stop-color="#1B91FF" stop-opacity="0.526042"/>
<stop offset="1" stop-color="#145795"/>
</linearGradient>
</defs>
</svg>
